#!OML:ASF X:\für Bonn\!DataBase\2005_08_12_Daniel\c3d\Daniel.ASF
:FULLY-SPECIFIED
:DEGREES
385
root 21.5649 1.33456 0.0835463 -1281.42 260.847 97.5147
lowerback 17.4528 -2.84669 -4.63737
upperback 3.45266 -4.95452 -1.76625
thorax -5.81853 -2.46798 1.83313
lowerneck -15.0081 1.48813 -6.80472
upperneck 6.90755 3.07443 1.93031
head 4.36106 1.42043 1.9295
rclavicle 2.42517e-014 1.73937e-016
rhumerus -410.603 -24.221 298.037
rradius 11.2652
rwrist 71.7462
rhand -15.0226 735.293
rfingers 7.12502
rthumb 11.143 705.609
lclavicle 2.42517e-014 1.73937e-016
lhumerus -411.714 31.279 -301.934
lradius 15.2263
lwrist -70.1487
lhand -20.9377 -724.847
lfingers 7.12502
lthumb 5.43453 25.0636
rfemur 11.3315 15.9586 17.8177
rtibia 23.8774
rfoot 345.345 -30.7287
rtoes 32.9827
lfemur 3.0759 -25.0878 -27.8697
ltibia 29.4842
lfoot 17.855 15.3734
ltoes 1.98668
386
root 21.5733 1.33313 0.0832344 -1281.44 260.882 97.5672
lowerback 17.4249 -2.8351 -4.64342
upperback 3.44415 -4.93738 -1.75447
thorax -5.81198 -2.45912 1.84381
lowerneck -14.9633 1.47781 -6.81854
upperneck 6.78928 3.05727 1.9365
head 4.31761 1.41408 1.93026
rclavicle 5.92378e-014 -4.9634e-014
rhumerus -410.422 -23.6486 297.474
rradius 11.3258
rwrist 71.5379
rhand -14.6534 735.074
rfingers 7.12502
rthumb 11.499 705.41
lclavicle 5.92378e-014 -4.9634e-014
lhumerus -411.834 30.7766 -301.78
lradius 15.2211
lwrist -70.5427
lhand -20.3687 -724.988
lfingers 7.12502
lthumb 5.98387 24.9071
rfemur 11.1876 15.6304 17.6652
rtibia 23.8795
rfoot 346.494 -30.8554
rtoes 32.5283
lfemur 3.0647 -25.1145 -27.8933
ltibia 29.454
lfoot 17.7987 15.2384
ltoes 2.11556
387
root 21.5824 1.33171 0.0836774 -1281.48 260.928 97.6529
lowerback 17.3804 -2.81832 -4.61418
upperback 3.432 -4.90739 -1.77289
thorax -5.80691 -2.44432 1.79928
lowerneck -14.8821 1.45403 -6.79021
upperneck 6.64787 3.01241 1.93468
head 4.2632 1.39543 1.91909
rclavicle -4.17448e-014 7.91505e-014
rhumerus -410.446 -23.5439 297.36
rradius 11.3435
rwrist 72.0156
rhand -14.2505 734.825
rfingers 7.12502
rthumb 11.8875 705.183
lclavicle -4.17448e-014 7.91505e-014
lhumerus -411.935 30.2395 -301.624
lradius 15.2767
lwrist -70.8161
lhand -19.7562 -725.308
lfingers 7.12502
lthumb 6.57514 24.5701
rfemur 11.0306 15.3153 17.5125
rtibia 23.8777
rfoot 347.725 -30.9456
rtoes 32.0741
lfemur 3.03194 -25.1744 -27.9354
ltibia 29.4438
lfoot 17.7542 15.0779
ltoes 2.02426
388
root 21.5921 1.3303 0.0829981 -1281.55 260.951 97.7586
lowerback 17.3463 -2.8129 -4.63567
upperback 3.41871 -4.90125 -1.76762
thorax -5.8008 -2.44045 1.81377
lowerneck -14.8078 1.45442 -6.76024
upperneck 6.51393 3.00259 1.90193
head 4.21122 1.39157 1.90082
rclavicle -3.81667e-014 -5.64051e-014
rhumerus -410.446 -23.4469 297.312
rradius 11.3271
rwrist 72.5367
rhand -13.8073 734.595
rfingers 7.12502
rthumb 12.3149 704.978
lclavicle -3.81667e-014 -5.64051e-014
lhumerus -411.987 29.619 -301.274
lradius 15.392
lwrist -70.841
lhand -19.0793 -725.636
lfingers 7.12502
lthumb 7.22858 24.2205
rfemur 10.9046 15.1052 17.4128
rtibia 23.8713
rfoot 348.682 -30.9716
rtoes 31.5921
lfemur 3.00035 -25.2543 -27.9942
ltibia 29.4475
lfoot 17.7013 14.9087
ltoes 2.0234
389
root 21.6012 1.32887 0.0831573 -1281.59 260.982 97.8227
lowerback 17.3298 -2.80075 -4.62624
upperback 3.40504 -4.88236 -1.77316
thorax -5.80898 -2.43042 1.79816
lowerneck -14.6874 1.44768 -6.72882
upperneck 6.35443 2.97799 1.8877
head 4.14437 1.38231 1.88616
rclavicle -4.65156e-014 2.87275e-014
rhumerus -410.534 -23.5177 297.426
rradius 11.3158
rwrist 73.2536
rhand -13.2659 734.317
rfingers 7.12502
rthumb 12.8369 704.732
lclavicle -4.65156e-014 2.87275e-014
lhumerus -412.093 29.1047 -301.077
lradius 15.4967
lwrist -71.0532
lhand -18.4199 -726.103
lfingers 7.12502
lthumb 7.86509 23.7305
rfemur 10.807 14.8876 17.3228
rtibia 23.8633
rfoot 349.663 -30.9509
rtoes 31.1471
lfemur 2.98724 -25.3373 -28.0604
ltibia 29.4609
lfoot 17.6326 14.7109
ltoes 1.9867
